<?xml version="1.0"?>
<svg width="64" height="64" xmlns="http://www.w3.org/2000/svg" xmlns:svg="http://www.w3.org/2000/svg" preserveAspectRatio="xMidYMid meet" version="1.0">
 <g class="layer">
  <title>Layer 1</title>
  <g fill="#000000" id="svg_1" transform="matrix(0.0266667 0 0 -0.0233577 -0.733333 -0.766423)">
   <path d="m51.5,-57.81c5,-13 352,-630 688,-1223l110,-194l174,290l174,290l-205,423l-205,424l-371,3c-330,2 -371,1 -365,-13z" id="svg_2"/>
   <path d="m1630.5,-57.81c-45,-20 -84,-68 -90,-113c-5,-34 1,-53 38,-122c50,-93 50,-93 -32,-157c-40,-30 -70,-44 -114,-53c-115,-22 -223,-62 -255,-95l-31,-32l26,-51c16,-32 55,-77 107,-126l82,-75l-13,-43c-7,-24 -20,-70 -30,-104c-9,-33 -36,-91 -60,-128c-24,-37 -57,-103 -72,-148c-16,-45 -41,-94 -55,-110l-27,-27l27,-36l27,-35l-45,-63c-28,-39 -51,-87 -62,-127c-25,-92 -61,-140 -141,-188c-84,-50 -126,-92 -154,-157c-47,-107 -224,-325 -264,-325c-27,0 -135,-61 -135,-76c0,-8 15,-42 33,-75c17,-34 46,-86 62,-117c37,-70 90,-108 163,-116c42,-6 53,-4 58,9c7,17 -22,55 -41,55c-18,0 -22,17 -17,78c3,36 8,52 18,52c16,0 19,16 4,25c-18,11 -10,45 30,123c35,69 58,96 195,228c86,82 173,158 194,169c60,32 77,48 100,93c12,23 49,72 82,109c33,36 81,97 107,135c33,47 53,68 68,68c11,0 37,16 57,35c20,19 41,35 46,35c6,0 26,-13 44,-30c34,-29 129,-81 177,-95c39,-12 115,-52 128,-68c11,-12 6,-16 -25,-22c-49,-9 -127,-58 -150,-95c-45,-72 -289,-231 -329,-216c-20,8 -154,-44 -154,-59c0,-24 43,-110 71,-142c15,-18 31,-50 35,-70c8,-47 84,-155 118,-171c55,-25 72,13 36,83c-20,39 -27,105 -12,105c5,0 9,14 10,31c0,17 3,33 6,36c3,3 1,15 -5,25c-9,17 -4,27 40,67c28,26 77,59 109,74c69,31 259,112 324,138c57,22 165,104 174,131c11,34 -6,73 -73,163c-81,110 -186,215 -273,274c-36,25 -76,57 -88,73c-23,28 -23,30 -8,68c9,23 16,69 16,108c0,66 1,68 33,86c17,11 68,43 112,71c44,29 109,66 145,83c87,41 148,91 129,106c-8,6 -14,18 -14,26c0,8 -9,15 -19,15c-11,0 -21,6 -23,13c-3,6 2,12 11,12c21,0 31,20 15,30c-7,5 -25,2 -40,-6c-36,-18 -39,-18 -39,4c0,50 -17,31 -77,-85c-17,-34 -39,-58 -63,-72c-48,-27 -64,-27 -51,-3c30,56 16,219 -24,275c-21,30 -19,80 6,121c17,29 28,36 65,42c50,7 51,9 58,73c3,24 10,49 15,54c7,7 2,20 -14,39c-14,17 -25,42 -25,59c0,16 -7,46 -17,67c-9,20 -15,40 -14,45c5,24 -179,42 -226,22zm-210,-650c-20,-42 -26,-43 -41,-10c-18,39 -15,45 23,45l35,0l-17,-35z" id="svg_3"/>
   <path d="m2064.5,-69.81c2,-16 15,-134 29,-263c14,-129 27,-236 28,-238c4,-3 296,514 296,522c0,4 -80,6 -178,6l-179,0l4,-27z" id="svg_4"/>
   <path d="m1857.5,-2258.81c-102,-96 -207,-196 -233,-223l-49,-48l59,-116l58,-117l362,0l363,0l0,26c0,23 -357,654 -370,653c-3,0 -88,-79 -190,-175z" id="svg_5"/>
   <path d="m174.5,-2484.81c-59,-93 -137,-241 -137,-257c0,-20 5,-21 154,-21l153,0l-75,148c-41,81 -76,149 -78,150c-1,2 -9,-7 -17,-20z" id="svg_6"/>
  </g>
 </g>
</svg>