<?xml version="1.0" encoding="utf-8"?>
<!-- Generator: Adobe Illustrator 27.7.0, SVG Export Plug-In . SVG Version: 6.00 Build 0)  -->
<svg version="1.1" xmlns="http://www.w3.org/2000/svg" xmlns:xlink="http://www.w3.org/1999/xlink" x="0px" y="0px"
	 viewBox="0 0 595.3 240.9" style="enable-background:new 0 0 595.3 240.9;" xml:space="preserve">
<style type="text/css">
	.st0{display:none;fill:#FFFFFF;}
	.st1{fill:#E42320;}
</style>
<g id="Calque_1">
	<rect class="st0" width="595.3" height="240.9"/>
</g>
<g id="Calque_2">
	<g>
		<path d="M221.9,97.1h-33.7V82.5h33.7V97.1z"/>
		<path d="M301.5,58.6H277V125h-19.7V58.6h-24V43.4h68.1V58.6z"/>
		<path d="M340.1,96.1h-10.6V125h-19.7V43.4h32.1c9.7,0,17.2,2.1,22.7,6.4c5.4,4.3,8.2,10.3,8.2,18.2c0,5.7-1.1,10.4-3.4,14.1
			c-2.3,3.7-5.9,6.7-10.8,9.1l17,32.9v0.8h-21.1L340.1,96.1z M329.5,81h12.4c3.7,0,6.5-1,8.4-2.9c1.9-2,2.8-4.7,2.8-8.2
			c0-3.5-1-6.3-2.9-8.3s-4.7-3-8.4-3h-12.4V81z"/>
		<path d="M430.9,109.7H404l-4.7,15.2h-21l29.9-81.5h18.5l30.1,81.5h-21.1L430.9,109.7z M408.7,94.5h17.5l-8.8-28.3L408.7,94.5z"/>
		<path d="M483.6,125h-19.6V43.4h19.6V125z"/>
		<path d="M517,109.8h34.2V125h-53.9V43.4H517V109.8z"/>
		<path d="M480.9,162.5h-9.7v-9.7h9.7V162.5z"/>
		<path class="st1" d="M94.2,125.2L45.3,38.6h45l24.9,51.6L94.2,125.2z M64.2,202.3H44.1l10.5-18.5L64.2,202.3z M166.2,161.2
			l24,41.1h-45.5l-7.1-14.3L166.2,161.2z M166.7,38.6h22.3l-18.7,33.2L166.7,38.6z"/>
		<g>
			<g>
				<path d="M75.7,200.8c0.4,0.2,0.8,0.5,1.2,0.7l6.5,0.7c0.2-0.3,0.4-0.7,0.4-1.2c0-0.4-0.1-1.1-0.3-1.5c-0.4-0.5-0.9-1.1-1.6-1.3
					c-0.2-0.1-0.6,0-0.9-0.1c-0.3-0.1-0.4-0.5-0.6-0.7c-0.2-0.3-0.5-0.5-0.5-0.7c-0.1-0.5,0.2-1.1,0.4-1.6c0.4-1.8-0.2-3.3,0.3-5
					c0.5-0.1,0.8,0.4,1.2,0.3c0.3-0.1,0.4-0.5,0.4-0.8c0-0.7-0.7-1.2-1.1-1.5c-0.1-0.2,0-0.5-0.1-0.8c-0.1-0.3-0.2-0.5-0.1-0.8
					c0.1-0.6,0.5-1.4,0.8-1.9c0.4-0.6,0.7-1.2,0.9-1.8c0.5-1.2,1.3-2.4,2-3.4c0.1-0.2,0.1-0.6,0.2-0.9c0.1-0.3,0.4-0.7,0.6-1.1
					c0.6-1,1.6-1.8,2.3-2.7c1-1.2,2.3-2.1,3.4-3.1c2.2-2.2,4.5-4.2,6.6-6.4c1.6-1.6,3.2-3.3,4.9-4.9c1.1-1,2.4-1.9,3.8-2.7
					c0.7-0.4,1.4-0.6,2.1-1c1.3-0.7,2.7-1.6,3.5-2.9c0.3-0.5,0.4-1.1,0.6-1.7c0.2-0.5,0.5-1,0.8-1.5c0.5-0.9,1.2-1.7,1.9-2.5
					c0.7-0.8,1.3-1.6,2-2.3c0.7-0.8,1.4-1.4,2.1-2.2c2.9-3,4.7-6.7,7.4-10.1c0,0,0.1,0,0.1,0c0.9,0,1.8,0.2,2.4-0.1
					c0.4-0.1,0.8-0.7,1.1-1.1c0.8-0.7,1.5-1.2,2.2-2.1c0.4-0.4,0.6-1.2,1.1-1.3c1.1-0.2,1.5,0.6,2,1.1c0.3,0.3,0.7,0.7,1,1
					c0.7,0.7,1.6,1.3,2.4,1.8c1.5,1.1,3.7,1.9,5.7,2.8c1,0.4,2.1,0.8,3.1,1.2c2,0.8,3.9,1.7,5.8,2.8c0.5,0.3,0.7,0.4,1.2,0.9
					c0.2,0.2,1.1,0.6,0.9,1.1c-0.1,0.2-0.8,0.2-1.2,0.3c-1.4,0.1-2.6,0.3-3.6,0.8c-1.4,0.7-2.7,1.5-3.8,2.4
					c-0.6,0.5-1.2,0.9-1.7,1.5c-0.5,0.6-0.9,1.2-1.3,1.9c-0.4,0.6-0.9,1.2-1.5,1.7c-0.6,0.5-1.1,1.1-1.6,1.5
					c-2.4,1.9-4.6,3.7-7.2,5.3c-0.6,0.4-1.2,0.8-1.9,1.2c-0.7,0.3-1.4,0.5-2.2,0.9c-1,0.5-2,0.9-3.2,1.4c-0.4,0.2-0.8,0.4-1.1,0.4
					c-0.6,0-0.9-0.4-1.4-0.4c-0.3,0-0.6,0.4-0.8,0.5c-0.8,0.3-1.8,0.2-2.7,0.6c-0.6,0.2-1.3,0.4-1.8,0.7c-0.2,0.1-0.3,0.3-0.5,0.3
					c-0.2,0.1-0.5,0-0.7,0.1c-0.5,0.1-1.4,0.3-1.7,0.8c-0.4,0.7,0,1.7,0.2,2.3c0.5,1.5,1.1,2.5,1.7,3.8c0.3,0.6,0.6,1.3,0.9,1.8
					c0.4,0.6,1,0.9,1.5,1.4c1,1,1.4,2.4,1.8,3.8c0.2,0.7,0.2,1.5,0.4,2.3c0.2,0.7,0.7,1.4,1.2,2c1,1.3,1.7,2.4,2.6,3.7
					c0.2,0.3,0.5,0.6,0.7,0.9c0.2,0.3,0.4,0.7,0.7,0.9c0.3,0.2,0.7,0.5,1.1,0.7c0.4,0.3,0.8,0.5,1.3,0.6c1,0.3,2.1-0.2,2.4-0.9
					c0.7-1.4-0.1-2.7-0.6-3.6c-0.3-0.5-0.8-1.1-1-1.7c-0.1-0.4-0.3-0.9-0.4-1.4c-0.1-0.5-0.4-1-0.4-1.4c-0.1-0.9,0.1-1.7,0.1-2.7
					c0.4-0.1,1,0.1,1.2-0.3c0.2-0.5-0.4-0.9-0.4-1.4c0-0.4,0.5-0.7,0.6-1.1c0.1-0.3,0-0.6,0-1c0.1-0.5,0.2-0.8,0.1-1.1
					c-0.1-0.5-0.7-0.8-0.7-1.2c0-0.3,0.3-0.4,0.4-0.8c0.1-0.2,0-0.5,0.1-0.7c0.2-0.4,0.8-0.4,1-0.7c0.1-0.2,0.2-0.6,0.4-0.8
					c0.4-0.4,1.1-0.8,1.7-1.3c0.3-0.2,0.6-0.4,0.8-0.7c0.3-0.3,0.5-0.7,0.8-0.9c0.3-0.2,0.7-0.3,1.1-0.5c1-0.5,2-1.1,3.1-1.7
					c2.8-1.4,5.7-2.4,8.8-3.6c2.9-1.2,5.9-2.4,8.7-3.8c0.7-0.4,1.4-0.8,2.1-1c0.4-0.1,0.8-0.1,1.2-0.3c0.4-0.1,0.7-0.2,1.1-0.4
					c1.5-0.5,2.3-2,3.6-2.8c0.6-0.4,1.3-0.8,1.9-1.3c1-0.9,2.2-1.6,2.6-3.2c0-0.1,0-0.3,0-0.4c-0.1-1.1-0.4-2.1-0.7-3
					c-0.5-1.4-1.5-2.5-2.4-3.7c-0.9-1.2-1.8-2.4-2.6-3.5c-1.7-2.4-3.6-4.6-5.5-6.8c-0.9-1.1-2-2.1-3.1-3.1c-1.1-1-2.3-1.9-3.5-2.9
					c-0.6-0.5-1.1-0.9-1.8-1.4c-0.9-0.6-2-1.3-2.9-1.9c-0.3-0.2-0.5-0.6-0.8-0.8c-0.3-0.2-0.6-0.4-1-0.6c-0.2-0.2-0.9-0.5-1-0.6
					c-0.2-0.2-0.1-0.7-0.2-0.8c-0.1-0.2-0.3-0.4-0.4-0.5c-0.2-0.1-0.4-0.1-0.6-0.3c-0.2-0.1-0.3-0.4-0.5-0.6
					c-0.2-0.2-0.4-0.4-0.5-0.7c-0.2-0.9,0.4-1.7,0.7-2.3c1.1-2,0.8-5.2,0.8-7.5c0-1-0.1-2.3,0.2-3.1c0.2-0.5,1.2-1,1.8-1.3
					c0.7-0.3,1.4-0.7,2-1c1.3-0.7,2.5-1.7,3.6-2.5c1.2-0.8,2.4-1.5,3.7-2.4c0.6-0.4,1.2-0.7,1.9-1.1c0.3-0.2,0.7-0.4,0.9-0.6
					c0.3-0.2,0.6-0.5,0.9-0.6c0.5-0.2,1.1-0.3,1.6-0.4c1.7-0.5,2.8-1.4,4.2-2.3c0.8-0.5,1.7-1.1,2.5-1.8c0.4-0.3,0.7-0.6,1.2-1
					c0.4-0.3,1.2-0.5,1.2-1c0.1-0.4-0.2-1-0.6-1.1c-0.3-0.1-0.6,0.2-1,0c0.1-0.5,0.5-0.7,0.5-1.3c0-0.3-0.3-1-0.8-1.1
					c-0.4,0-0.7,0.5-1.2,0.4c-0.3-0.1-0.3-0.4-0.5-0.6c-0.2-0.2-0.6-0.2-0.6-0.5c0-0.4,1.2-0.8,1.4-0.9c0.6-0.2,1.4-0.1,1.5-0.7
					c0.1-0.5-0.4-1-0.9-1.1c-1-0.3-1.9,0.3-2.6,0.6c-0.4,0.2-0.8,0.3-1.1,0.5c-0.3,0.2-0.6,0.7-1.1,0.6c-0.2-0.3,0.1-0.8,0.2-1.2
					c0.1-0.8-0.2-1.8-0.8-2c-0.5-0.1-0.7,1.1-0.8,1.5c-0.1,0.3-0.4,0.6-0.7,0.9c-0.4,0.6-0.7,1.4-1.2,2c-0.2,0.3-0.5,0.6-0.7,0.9
					c-0.4,0.6-0.6,1.4-0.9,2.1c-0.3,0.7-0.5,1.4-0.8,2c-0.3,0.5-0.9,0.9-1.4,1.2c-1,0.6-2,1.1-3,1.6c-0.5,0.2-1.1,0.6-1.7,0.5
					c0.1-0.8,0.7-1.5,0.9-2.4c0.9-2.8,0.6-6,0.4-8.5c-0.1-0.8-0.4-1.6-0.6-2.4c-0.2-0.8-0.4-1.6-0.6-2.4c-0.2-0.8-0.7-1.3-1.1-2
					c-0.2-0.3-0.3-0.7-0.5-1c-0.2-0.4-0.4-0.7-0.5-1.1c-0.2-0.9-0.2-2.3,0.1-3.2c0-0.1,0.1-0.2,0.1-0.3c0.1-0.4,0.7-0.9,1-1.3
					c0-0.1,0.1-0.1,0.1-0.2c0.3-0.4,0.6-0.8,0.7-1.2c0.2-0.5,0.2-1,0.6-1.4c1.1,0.2,2.1,0,3.1-0.2c0.2,0,0.3-0.1,0.5-0.1
					c0.8,0,1.4-0.1,1.8-0.6c0.4-0.4,0.5-1,0.4-1.5c0-0.2-0.1-0.4-0.1-0.6c0-0.2,0-0.4,0-0.6c0.1-0.3,0.6-0.5,0.6-0.8c0,0,0,0,0-0.1
					c0-0.4-0.2-0.7-0.5-0.9c0.4-0.2,0.9-0.4,0.8-0.8c0-0.1-0.1-0.2-0.1-0.2c-0.4-0.5-0.3-0.8,0-1c0.3-0.2,0.7-0.3,0.9-0.5
					c0.3-0.2,0.2-0.6,0.2-0.7c-0.1-0.2-0.1-0.3-0.2-0.4c-0.4-0.5-1.2-1-2-1.8c-0.2-0.2-0.5-0.7-0.7-1.3c-0.2-1,0.2-1.1,0-2.5
					c0-0.3-0.2-1.1-0.2-1.1c-0.6-1.7-1.2-3.3-2.2-4.2c0,0,0.6-0.7,0.3-1c-0.3-0.3-0.6-0.5-0.9-0.7L143,39.2
					c-0.7,0.2-1.4,0.4-2.1,0.7c0,0-0.1,0-0.1,0.1c-0.8,0.4-1.5,1-2.1,1.6c-0.3,0.3-0.7,0.4-1,0.7c-0.6,0.7-1.2,1.4-1.5,2.3
					c-0.4,1-0.8,1.9-0.9,3.1c0,1.6,1.3,3.5,1.8,4.7c0.2,0.4,0.3,0.9,0.5,1.2c0.2,0.4,0.2,0.8,0.5,1.2c0.3,0.4,0.5,0.8,0.8,1.1
					c0.3,0.5,0.8,1.1,1.1,1.7c0.1,0.2,0.1,0.4,0.2,0.5c0.1,0.1,0,0.3,0.1,0.4c0,0.5-0.1,1.3-0.3,1.6c-0.4,0.6-3.1,2.7-3.4,3.1
					c-0.2,0.4-2.1,1.1-2.6,1.7c-0.5,0.7-1.5,1.1-2.3,1.3c-1.1,0.2-2.1,0.5-3.2,0.6c-2.2,0.2-4,0.9-6,1.5c-1.9,0.6-3.8,1.2-5.6,1.9
					c-1.3,0.5-2.5,1.3-3.4,2.4c-0.5,0.6-0.9,0.9-1.2,1.7c-0.1,0.3,0.2,1.3,0.4,1.6c0.1,0.3,0.5,0.6,0.7,0.9c0.6,0.9,0.9,2.2,1.5,3.1
					c0.4,0.6,0.9,1.2,1.4,1.8c2.1,2.1,4.7,4,7,6c0.6,0.5,1.2,0.9,1.7,1.5c-0.2,2.4-1,4.3-1.9,6.2c-0.6,1.4-1,2.9-1.3,4.7
					c-0.1,0.6-0.2,1.3-0.4,1.8c-0.3,0.7-0.9,1.2-1.3,1.9c-0.4,0.7-0.8,1.4-1.2,2c-0.4,0.6-1,1.1-1.4,1.8c-0.4,0.6-0.8,1.4-1.1,2.1
					c-0.4,0.7-0.8,1.4-1.1,2.1c-0.3,0.8-0.5,1.7-0.8,2.6c-0.2,0.9-0.3,1.9-0.7,2.6c-0.2,0.4-0.4,0.7-0.5,1.1
					c-0.2,0.4-0.3,0.8-0.5,1.2c-0.2,0.3-0.5,0.6-0.8,0.9c-0.6,0.6-1.1,1.1-1.6,1.9c-0.2,0.4-0.6,0.9-0.6,1.2c0,0.3,0.3,0.7,0.6,1
					c0.5,0.6,1,1.2,1.5,1.8c0.3,0.3,0.7,0.6,0.7,1c0,0.4-0.6,1.2-0.9,1.7c-1,1.5-2.2,2.9-3.1,4.4c-0.4,0.5-0.6,1.1-1,1.6
					c-0.9,1.6-1.3,3.8-1.8,6c-0.3,1.5-0.8,2.6-1.6,3.6c-0.7,1-1.4,1.9-2.2,2.8c-0.8,0.9-1.8,1.4-2.9,2c-3,1.7-6.1,3.5-8.3,6.2
					c-0.8,0.9-1.5,1.9-1.9,3.2c-0.2,0.6-0.5,1.2-0.7,1.9c-0.1,0.3-0.2,0.7-0.3,0.9c-0.4,0.7-1,1.5-1.5,2.3c-0.3,0.5-0.7,1-1.1,1.4
					c-0.7,0.9-1.4,2-2.1,2.9c-1,1.5-2.1,2.9-3.1,4.4c-0.4,0.5-0.7,1-1,1.4c-0.2,0.2-0.5,0.2-0.8,0.5c-0.3,0.3-0.6,0.8-0.9,1.2
					c-0.6,0.9-1.2,1.4-2,2.1c-0.4,0.3-0.8,0.9-1.3,0.9c-0.8,0-1.4,0.1-2,0.4c-0.5,0.3-1.1,0.5-1.7,0.8c-0.9,0.4-1.8,0.7-2.6,1.2
					c-0.3,0.1-0.4,0.4-0.7,0.6c-0.2,0.1-0.4,0.1-0.6,0.2c-0.2,0.1-0.4,0.2-0.5,0.2c-0.6,0.3-1.3,0.2-1.5,0.8c0,0.1,0,0.3,0,0.4
					c0.2,1.5,1,2.6,1.7,3.8c0.2,0.4,0.5,0.8,0.6,1.2c0.1,0.4,0.1,0.9,0.3,1.3c0.2,0.3,0.5,0.7,0.7,1c0.7,1,1.6,1.8,2.1,3
					c0.6,1.6,1.1,3.2,2.2,4.5c0.5,0.6,1.1,1.2,1.8,1.7C74.3,199.8,75,200.4,75.7,200.8z M126.6,80.6c-0.4-0.8-0.8-1.5-1.1-2.2
					c-0.2-0.5-0.3-1-0.2-1.5c0.9,0.1,1.9,0.3,2.8,0.1c0.5-0.1,1-0.6,1.4-0.4c0,0.3-0.1,0.7-0.3,1c-0.1,0.4-0.2,0.7-0.3,1
					c-0.2,0.4-0.7,0.8-0.9,1.2c-0.2,0.3-0.5,1.5-0.8,1.5C126.8,81.2,126.7,80.8,126.6,80.6z"/>
			</g>
		</g>
		<g>
			<path d="M495.8,153.5h-3.1v8.4H487v-23.7h9.3c2.8,0,5,0.6,6.6,1.9c1.6,1.2,2.4,3,2.4,5.3c0,1.6-0.3,3-1,4.1
				c-0.7,1.1-1.7,2-3.1,2.6l5,9.6v0.2H500L495.8,153.5z M492.7,149.1h3.6c1.1,0,1.9-0.3,2.5-0.9c0.5-0.6,0.8-1.4,0.8-2.4
				c0-1-0.3-1.8-0.8-2.4c-0.6-0.6-1.4-0.9-2.4-0.9h-3.6V149.1z"/>
			<path d="M527.3,138.2v15.5c0,1.8-0.4,3.3-1.1,4.6c-0.7,1.3-1.8,2.3-3.2,2.9c-1.4,0.7-3.1,1-5,1c-2.9,0-5.2-0.7-6.8-2.2
				c-1.7-1.5-2.5-3.6-2.5-6.2v-15.6h5.7v15.7c0.1,2.6,1.3,3.9,3.6,3.9c1.2,0,2.1-0.3,2.7-1c0.6-0.7,0.9-1.7,0.9-3.2v-15.5H527.3z"/>
			<path d="M550.7,161.9H545l-8.4-14.8v14.8h-5.7v-23.7h5.7l8.4,14.8v-14.8h5.7V161.9z"/>
		</g>
	</g>
</g>
</svg>
